<svg xmlns="http://www.w3.org/2000/svg" width="64" height="64" viewBox="0 0 512 512">
    <g
        stroke="null"
        transform="matrix(2.5122204305161695,0,0,2.5122204305161695,-1123.5039578168125,-1123.4669114951682)"
    >
        <polygon
            fill="rgb(31, 151, 114)"
            points="549.31640625,448.91835513710976 549.31640625,448.91835513710976 549.31640625,448.91835513710976 456.2164001464844,482.118367344141 470.4164123535156,605.2183429300785 549.31640625,648.9183551371098 549.31640625,648.9183551371098 549.31640625,648.9183551371098 628.2164306640625,605.2183429300785 642.4164428710938,482.118367344141 "
        />
        <polygon
            fill="rgb(22, 128, 96)"
            points="549.31640625,448.91835513710976 549.31640625,471.118367344141 549.31640625,471.0183612406254 549.31640625,572.3183795511723 549.31640625,572.3183795511723 549.31640625,648.9183551371098 549.31640625,648.9183551371098 628.2164306640625,605.2183429300785 642.4164428710938,482.118367344141 549.31640625,448.91835513710976 "
        />
    </g>

    <g transform="translate(150, 150)">
        <g transform="scale(0.4)">
            <path
                fill="#fff"
                d="m467 0h-30c-8.285156 0-15 6.714844-15 15s6.714844 15 15 15h30c8.269531 0 15 6.730469 15 15v30c0 8.285156 6.714844 15 15 15s15-6.714844 15-15v-30c0-24.8125-20.1875-45-45-45zm0 0"
            />
            <path
                fill="#fff"
                d="m497 422c-8.285156 0-15 6.714844-15 15v30c0 8.269531-6.730469 15-15 15h-30c-8.285156 0-15 6.714844-15 15s6.714844 15 15 15h30c24.8125 0 45-20.1875 45-45v-30c0-8.285156-6.714844-15-15-15zm0 0"
            />
            <path
                fill="#fff"
                d="m75 482h-30c-8.269531 0-15-6.730469-15-15v-30c0-8.285156-6.714844-15-15-15s-15 6.714844-15 15v30c0 24.8125 20.1875 45 45 45h30c8.285156 0 15-6.714844 15-15s-6.714844-15-15-15zm0 0"
            />
            <path
                fill="#fff"
                d="m173 482h-30c-8.285156 0-15 6.714844-15 15s6.714844 15 15 15h30c8.285156 0 15-6.714844 15-15s-6.714844-15-15-15zm0 0"
            />
            <path
                fill="#fff"
                d="m241 0h-196c-24.8125 0-45 20.1875-45 45v196c0 24.8125 20.1875 45 45 45h196c24.8125 0 45-20.1875 45-45v-196c0-24.8125-20.1875-45-45-45zm15 241c0 8.269531-6.730469 15-15 15h-196c-8.269531 0-15-6.730469-15-15v-196c0-8.269531 6.730469-15 15-15h196c8.269531 0 15 6.730469 15 15zm0 0"
            />
            <path
                fill="#fff"
                d="m347 422c-8.285156 0-15 6.714844-15 15s6.714844 15 15 15h90c.492188 0 .988281-.027344 1.480469-.074219.222656-.023437.441406-.066406.664062-.097656.261719-.039063.527344-.066406.785157-.117187.253906-.050782.5-.121094.75-.183594.222656-.058594.449218-.105469.671874-.175782.246094-.074218.484376-.164062.722657-.25.222656-.082031.445312-.152343.664062-.242187.226563-.09375.441407-.203125.660157-.308594.222656-.105469.449218-.203125.667968-.320312.210938-.113281.414063-.242188.621094-.367188.214844-.128906.429688-.25.640625-.386719.226563-.15625.441406-.324218.664063-.488281.171874-.128906.347656-.25.515624-.386719.765626-.628906 1.464844-1.328124 2.09375-2.09375.140626-.171874.261719-.355468.394532-.53125.160156-.214843.328125-.421874.476562-.648437.144532-.214844.269532-.4375.402344-.65625.117188-.199219.242188-.394531.355469-.597656.121093-.226563.222656-.460938.332031-.691407.097656-.210937.207031-.421874.296875-.640624.09375-.222657.167969-.457032.25-.683594.082031-.234375.171875-.460938.246094-.699219.070312-.230469.121093-.46875.179687-.703125.058594-.238281.125-.476562.175782-.71875.054687-.273438.085937-.550781.125-.824219.03125-.210937.070312-.417969.089843-.628906.050781-.496094.078125-.992187.078125-1.488281v-89.996094c0-8.285156-6.71875-15-15-15-8.285156 0-15 6.714844-15 15v53.785156l-104.398437-104.390625c-5.855469-5.859375-15.355469-5.859375-21.210938 0-5.859375 5.855469-5.859375 15.355469 0 21.210938l104.390625 104.394531zm0 0"
            />
            <path
                fill="#fff"
                d="m271 482h-30c-8.285156 0-15 6.714844-15 15s6.714844 15 15 15h30c8.285156 0 15-6.714844 15-15s-6.714844-15-15-15zm0 0"
            />
            <path
                fill="#fff"
                d="m369 482h-30c-8.285156 0-15 6.714844-15 15s6.714844 15 15 15h30c8.285156 0 15-6.714844 15-15s-6.714844-15-15-15zm0 0"
            />
            <path
                fill="#fff"
                d="m339 30h30c8.285156 0 15-6.714844 15-15s-6.714844-15-15-15h-30c-8.285156 0-15 6.714844-15 15s6.714844 15 15 15zm0 0"
            />
            <path
                fill="#fff"
                d="m497 324c-8.285156 0-15 6.714844-15 15v30c0 8.285156 6.714844 15 15 15s15-6.714844 15-15v-30c0-8.285156-6.714844-15-15-15zm0 0"
            />
            <path
                fill="#fff"
                d="m15 384c8.285156 0 15-6.714844 15-15v-30c0-8.285156-6.714844-15-15-15s-15 6.714844-15 15v30c0 8.285156 6.714844 15 15 15zm0 0"
            />
            <path
                fill="#fff"
                d="m497 226c-8.285156 0-15 6.714844-15 15v30c0 8.285156 6.714844 15 15 15s15-6.714844 15-15v-30c0-8.285156-6.714844-15-15-15zm0 0"
            />
            <path
                fill="#fff"
                d="m497 128c-8.285156 0-15 6.714844-15 15v30c0 8.285156 6.714844 15 15 15s15-6.714844 15-15v-30c0-8.285156-6.714844-15-15-15zm0 0"
            />
        </g>
    </g>
</svg>
