<svg xmlns="http://www.w3.org/2000/svg" width="64" height="64" viewBox="0 0 549 589" fill="none"><path
        fill="#FF8989"
        d="M274 0 0 98l42 362 232 129 232-129 42-362L274 0Z"
    /><path fill="#FF6B6B" d="M274 0v589l232-129 42-362L274 0Z" /><path
        fill="#fff"
        d="M269 252h15c11 0 20 9 20 20v15h-15v-15c0-3-2-5-5-5h-15v-15Z"
    /><path
        fill="#fff"
        fill-rule="evenodd"
        d="M245 176c0-11 9-20 20-20h120c11 0 20 9 20 20v120c0 11-9 20-20 20H265c-11 0-20-9-20-20V176Zm20-5h120c3 0 5 2 5 5v120c0 3-2 5-5 5H265c-3 0-5-2-5-5V176c0-3 2-5 5-5Z"
        clip-rule="evenodd"
    /><path
        fill="#fff"
        d="M144 377v15c0 11 9 20 20 20h15v-15h-15c-3 0-5-2-5-5v-15h-15ZM144 347v-30h15v30h-15ZM144 287v-15c0-11 9-20 20-20h15v15h-15c-3 0-5 2-5 5v15h-15ZM209 252h30v15h-30v-15ZM304 317v30h-15v-30h15ZM304 377v15c0 11-9 20-20 20h-15v-15h15c3 0 5-2 5-5v-15h15ZM239 412h-30v-15h30v15ZM386 381a7 7 0 1 0 14 0v-44a5 5 0 0 1-1-1v-1h-1a7 7 0 0 0-1-2h-1l-1-1h-44a7 7 0 0 0 0 14h25l-49 49a7 7 0 1 0 10 10l49-49v25ZM217 217c-4 0-7-3-7-7v-25l-49 49a7 7 0 1 1-10-10l49-49h-25a7 7 0 1 1 0-14h43a5 5 0 0 1 1 0l1 1h1v1l1 1h1v1a4 4 0 0 1 1 1v1a4 4 0 0 1 0 1v42c0 4-3 7-7 7Z"
    /></svg>
