<svg width="600" height="600" viewBox="0 0 512 512" xmlns="http://www.w3.org/2000/svg">
   <g transform="matrix(2.5122204305161695,0,0,2.5122204305161695,-1123.5039578168125,-1123.4669114951682)">
    <polygon
            fill="#ec652c"
            points="549.31640625,448.91835513710976 549.31640625,448.91835513710976 549.31640625,448.91835513710976 456.2164001464844,482.118367344141 470.4164123535156,605.2183429300785 549.31640625,648.9183551371098 549.31640625,648.9183551371098 549.31640625,648.9183551371098 628.2164306640625,605.2183429300785 642.4164428710938,482.118367344141 "
            class="st0"
        />
    <polygon
            fill="#d85b26"
            points="549.31640625,448.91835513710976 549.31640625,471.118367344141 549.31640625,471.0183612406254 549.31640625,572.3183795511723 549.31640625,572.3183795511723 549.31640625,648.9183551371098 549.31640625,648.9183551371098 628.2164306640625,605.2183429300785 642.4164428710938,482.118367344141 549.31640625,448.91835513710976 "
            class="st1"
        />
   </g>
   <g transform="translate(153.5, 153.5)">
	<g transform="scale(0.4)">
		<path
                fill="#fff"
                d="M180.439,342.679c-23.852-23.852-63.353-34.368-99.873-18.984c-32.344,14.59-53.481,46.978-53.833,82.69
			c0,39.434-6.87,71.147-13.652,82.09L0,509.568l24.756,1.772c6.064,0.44,12.422,0.66,18.97,0.66
			c48.193,0,106.978-12.1,138.721-41.25C213.639,441.682,217.25,379.489,180.439,342.679z"
            />
		<path
                fill="#fff"
                d="M244.262,279.135c-14.681-14.688-31.222-26.187-48.744-34.531c-15.172,15.654-29.929,31.505-44.266,47.3
			c18.763,5.281,36.026,15.167,50.413,29.594c14.407,14.377,24.719,32.302,30.17,51.85c15.613-14.143,31.317-28.707,47.091-43.885
			C270.917,311.158,259.325,293.785,244.262,279.135z"
            />
		<path
                fill="#fff"
                d="M505.32,6.677C494.085-4.544,475.613-9.803,385.789,60.07c-53.438,41.572-108.728,102.36-166.897,160.529l-1.185,1.185
			l-0.046-0.027l-0.337,0.339c17.186,9.293,33.435,21.105,48.003,35.682c15.033,14.617,27.173,31.661,36.381,49.788l0.416-0.408
			l-0.06-0.101l1.672-1.672c58.14-58.14,106.604-125.724,148.177-179.176C521.726,36.442,516.585,17.941,505.32,6.677z"
            />
	</g>
	</g>
</svg>
