<svg width="64" height="64" viewBox="0 0 512 512" xmlns="http://www.w3.org/2000/svg">
    <!-- Created with Method Draw - http://github.com/duopixel/Method-Draw/ -->

    <g>
        <title>background</title>
        <rect fill="none" id="canvas_background" height="514" width="514" y="-1" x="-1"/>
        <g display="none" id="canvasGrid">
            <rect fill="url(#gridpattern)" stroke-width="0" y="0" x="0" height="100%" width="100%" id="svg_1"/>
        </g>
    </g>
    <g>
        <title>Layer 1</title>
        <style type="text/css">.st0{fill:#bb56cf;}
        .st1{fill:#a04ab1;}
        .st2{fill:#FFFFFF;}</style>
        <g stroke="null" id="svg_8">
            <g stroke="null" transform="matrix(2.5122204305161695,0,0,2.5122204305161695,-1123.5039578168125,-1123.4669114951682) " id="svg_5">
                <polygon stroke="null" id="svg_6" points="549.31640625,448.91835513710976 549.31640625,448.91835513710976 549.31640625,448.91835513710976 456.2164001464844,482.118367344141 470.4164123535156,605.2183429300785 549.31640625,648.9183551371098 549.31640625,648.9183551371098 549.31640625,648.9183551371098 628.2164306640625,605.2183429300785 642.4164428710938,482.118367344141 " class="st0"/>
                <polygon stroke="null" id="svg_7" points="549.31640625,448.91835513710976 549.31640625,471.118367344141 549.31640625,471.0183612406254 549.31640625,572.3183795511723 549.31640625,572.3183795511723 549.31640625,648.9183551371098 549.31640625,648.9183551371098 628.2164306640625,605.2183429300785 642.4164428710938,482.118367344141 549.31640625,448.91835513710976 " class="st1"/>
            </g>
        </g>
        <g transform="translate(120, 120)">
            <g transform="scale(0.5)">
                <path d="M439.528,209.298c-5.674,0-10.574,2.068-14.719,6.206c-4.143,4.149-6.211,9.058-6.211,14.719v41.867    c0,40.343-14.34,74.848-43.006,103.514c-28.672,28.666-63.176,42.999-103.507,42.999c-40.337,0-74.842-14.333-103.508-42.999    c-28.672-28.666-43.005-63.171-43.005-103.514v-41.861c0-5.661-2.075-10.563-6.212-14.719c-4.143-4.137-9.052-6.206-14.719-6.206    c-5.673,0-10.582,2.069-14.718,6.206c-4.144,4.149-6.212,9.058-6.212,14.719v41.861c0,48.188,16.071,90.099,48.238,125.741    c32.154,35.655,71.892,56.097,119.205,61.316v43.177h-83.721c-5.673,0-10.582,2.057-14.719,6.206    c-4.143,4.137-6.212,9.045-6.212,14.718c0,5.661,2.069,10.563,6.212,14.719c4.137,4.138,9.045,6.206,14.719,6.206h209.304    c5.668,0,10.576-2.068,14.719-6.206c4.137-4.149,6.211-9.058,6.211-14.719c0-5.673-2.074-10.575-6.211-14.718    c-4.143-4.149-9.051-6.206-14.719-6.206h-83.721v-43.177c47.307-5.227,87.037-25.667,119.205-61.316    c32.154-35.643,48.238-77.553,48.238-125.741v-41.861c0-5.661-2.076-10.563-6.213-14.719    C450.099,211.372,445.196,209.298,439.528,209.298z" fill="#ffffff" data-original="#000000" style=""/>
                <path d="M222.758,203.747h-55.325v38.384h55.325c8.452,0,15.3,6.848,15.3,15.3c0,8.452-6.848,15.3-15.3,15.3h-55.294    c0.153,28.501,10.374,52.932,30.71,73.269c20.49,20.502,45.135,30.734,73.911,30.734c28.777,0,53.416-10.232,73.912-30.734    c20.33-20.337,30.557-44.768,30.709-73.269h-53.365c-8.453,0-15.301-6.848-15.301-15.3c0-8.452,6.848-15.3,15.301-15.3h53.396    v-38.384h-53.396c-8.453,0-15.301-6.849-15.301-15.3s6.848-15.3,15.301-15.3h53.396v-40.796h-53.396    c-8.453,0-15.301-6.849-15.301-15.3s6.848-15.3,15.301-15.3h53.268c-0.672-27.521-10.82-51.212-30.605-71.017    C325.507,10.245,300.868,0,272.091,0c-28.782,0-53.421,10.245-73.911,30.734c-19.792,19.804-29.933,43.495-30.606,71.017h55.196    c8.452,0,15.3,6.848,15.3,15.3s-6.848,15.3-15.3,15.3h-55.325v40.796h55.325c8.452,0,15.3,6.848,15.3,15.3    S231.21,203.747,222.758,203.747z" fill="#ffffff" data-original="#000000" style=""/>
            </g>
        </g></g>
</svg>
