<svg xmlns="http://www.w3.org/2000/svg" width="64" height="64" viewBox="0 0 512 512">
    <!-- Created with Method Draw - http://github.com/duopixel/Method-Draw/ -->

    <g>
        <title>background</title>
        <rect id="canvas_background" x="-1" y="-1" fill="none" height="514" width="514" />
        <g id="canvasGrid" display="none">
            <rect id="svg_1" x="0" y="0" fill="url(#gridpattern)" stroke-width="0" height="100%" width="100%" />
        </g>
    </g>
    <g>
        <title>Layer 1</title>
        <style type="text/css">
            .st0 {
                fill: #f0d800;
            }
            .st1 {
                fill: #d5c109;
            }
            .st2 {
                fill: #ffffff;
            }
        </style>
        <g id="svg_8" stroke="null">
            <g
                id="svg_5"
                stroke="null"
                transform="matrix(2.5122204305161695,0,0,2.5122204305161695,-1123.5039578168125,-1123.4669114951682) "
            >
                <polygon
                    id="svg_6"
                    stroke="null"
                    points="549.31640625,448.91835513710976 549.31640625,448.91835513710976 549.31640625,448.91835513710976 456.2164001464844,482.118367344141 470.4164123535156,605.2183429300785 549.31640625,648.9183551371098 549.31640625,648.9183551371098 549.31640625,648.9183551371098 628.2164306640625,605.2183429300785 642.4164428710938,482.118367344141 "
                    class="st0"
                />
                <polygon
                    id="svg_7"
                    stroke="null"
                    points="549.31640625,448.91835513710976 549.31640625,471.118367344141 549.31640625,471.0183612406254 549.31640625,572.3183795511723 549.31640625,572.3183795511723 549.31640625,648.9183551371098 549.31640625,648.9183551371098 628.2164306640625,605.2183429300785 642.4164428710938,482.118367344141 549.31640625,448.91835513710976 "
                    class="st1"
                />
            </g>
        </g>
        <g transform="scale(0.8)">
            <g transform="translate(150, 160)">
                <path
                    xmlns="http://www.w3.org/2000/svg"
                    d="M287.305,243.005c-0.136-1.772-0.928-3.476-2.227-4.747L172.835,126.015c4.416-10.403,6.747-21.669,6.747-33.312  c0-22.754-8.875-44.163-24.938-60.266C138.558,16.366,117.164,7.5,94.397,7.5c-22.778,0-44.135,8.869-60.247,24.95  C0.907,65.675,0.9,119.716,34.145,152.938c16.111,16.115,37.475,24.99,60.241,24.99c11.646,0,22.884-2.35,33.312-6.772  l36.874,36.902c1.534,1.515,3.557,2.319,5.74,2.248l20.095-0.705l-0.656,20.145c-0.062,2.125,0.705,4.193,2.245,5.706  c1.484,1.512,3.569,2.334,5.685,2.248l20.169-0.689l-0.724,20.123c-0.063,2.127,0.754,4.199,2.238,5.712  c1.534,1.512,3.321,2.325,5.74,2.251l20.119-0.684l-0.674,20.126c-0.118,2.232,0.822,4.379,2.418,5.903  c1.472,1.339,3.309,2.06,5.245,2.06c0.278,0,0.563-0.012,0.847-0.037l30.851-3.426c4.169-0.455,7.205-4.175,6.847-8.353  L287.305,243.005z M84.106,82.415c-9.476,9.466-24.796,9.466-34.252,0c-9.47-9.469-9.47-24.786,0-34.246  c9.456-9.46,24.771-9.469,34.252-0.003C93.563,57.625,93.557,72.952,84.106,82.415z M260.97,245.575  c-1.126,1.126-2.635,1.688-4.101,1.688s-2.976-0.563-4.101-1.688l-95.501-95.529c2.659-2.867,5.077-5.885,7.273-9.058l96.429,96.41  C263.221,239.65,263.221,243.324,260.97,245.575z"
                    fill="#ffffff"
                    data-original="#000000"
                    style=""
                    class=""
                />
            </g>
        </g>
    </g>
</svg>
