<svg xmlns="http://www.w3.org/2000/svg" width="64" height="64" viewBox="0 0 512 512">
    <!-- Created with Method Draw - http://github.com/duopixel/Method-Draw/ -->

    <g>
        <title>background</title>
        <rect id="canvas_background" x="-1" y="-1" fill="none" height="514" width="514" />
        <g id="canvasGrid" display="none">
            <rect id="svg_1" x="0" y="0" fill="url(#gridpattern)" stroke-width="0" height="100%" width="100%" />
        </g>
    </g>
    <g>
        <title>Layer 1</title>
        <style type="text/css">
            .st0 {
                fill: #ccdc10;
            }
            .st1 {
                fill: #c2d208;
            }
            .st2 {
                fill: #ffffff;
            }
        </style>
        <g id="svg_8" stroke="null">
            <g
                id="svg_5"
                stroke="null"
                transform="matrix(2.5122204305161695,0,0,2.5122204305161695,-1123.5039578168125,-1123.4669114951682) "
            >
                <polygon
                    id="svg_6"
                    stroke="null"
                    points="549.31640625,448.91835513710976 549.31640625,448.91835513710976 549.31640625,448.91835513710976 456.2164001464844,482.118367344141 470.4164123535156,605.2183429300785 549.31640625,648.9183551371098 549.31640625,648.9183551371098 549.31640625,648.9183551371098 628.2164306640625,605.2183429300785 642.4164428710938,482.118367344141 "
                    class="st0"
                />
                <polygon
                    id="svg_7"
                    stroke="null"
                    points="549.31640625,448.91835513710976 549.31640625,471.118367344141 549.31640625,471.0183612406254 549.31640625,572.3183795511723 549.31640625,572.3183795511723 549.31640625,648.9183551371098 549.31640625,648.9183551371098 628.2164306640625,605.2183429300785 642.4164428710938,482.118367344141 549.31640625,448.91835513710976 "
                    class="st1"
                />
            </g>
        </g>
        <g id="svg_33" stroke="null">
            <g
                id="svg_28"
                stroke="null"
                transform="matrix(0.4366354896881691,0,0,0.4366354896881691,-15730.391266915714,-15924.396543350536) "
            >
                <rect
                    id="svg_29"
                    x="36723.253623"
                    y="37045.172224"
                    fill="#ffffff"
                    stroke="null"
                    height="42"
                    width="30"
                />
                <rect
                    id="svg_30"
                    x="36481.253623"
                    y="37045.172224"
                    fill="#ffffff"
                    stroke="null"
                    height="42"
                    width="30"
                />
                <path
                    id="svg_31"
                    fill="#ffffff"
                    stroke="null"
                    d="m36858.253623,36942.161224l-29.185,0c-2.024,-21.842 -20.454,-39 -42.815,-39l-51,0l0,-15c0,-24.813 -20.187,-45 -45,-45l-146,0c-24.813,0 -45,20.187 -45,45l0,15l-51,0c-22.361,0 -40.791,17.158 -42.815,39l-29.185,0c-8.284,0 -15,6.716 -15,15l0,79c0,7.563 5.602,13.801 12.88,14.833l77.12,0l0,-20.822c0,-8.284 6.716,-15 15,-15l60,0c8.284,0 15,6.716 15,15l0,20.822l152,0l0,-20.822c0,-8.284 6.716,-15 15,-15l60,0c8.284,0 15,6.716 15,15l0,20.822l77.12,0c7.277,-1.032 12.88,-7.271 12.88,-14.833l0,-79c0,-8.284 -6.716,-15 -15,-15zm-329,-54c0,-8.271 6.729,-15 15,-15l146,0c8.271,0 15,6.729 15,15l0,15l-176,0l0,-15z"
                />
                <path
                    id="svg_32"
                    fill="#ffffff"
                    stroke="null"
                    d="m36783.253623,37102.172224c0,8.284 -6.716,15 -15,15l-60,0c-8.284,0 -15,-6.716 -15,-15l0,-21.178l-152,0l0,21.178c0,8.284 -6.716,15 -15,15l-60,0c-8.284,0 -15,-6.716 -15,-15l0,-21.178l-60,0l0,108.178c0,24.807 20.182,44.989 44.989,44.989l362.021,0c24.807,0 44.989,-20.183 44.989,-44.989l0,-108.178l-60,0l0,21.178l0.001,0z"
                />
            </g>
        </g>
    </g>
</svg>
