<svg xmlns="http://www.w3.org/2000/svg" width="64" height="64" viewBox="0 0 64 64" fill="none">
    <path
        d="M32.0625 0.539368L2.82652 10.9651L7.28572 49.6219L32.0625 63.3449L56.8393 49.6219L61.2985 10.9651L32.0625 0.539368Z"
        fill="#6283FB"
    />
    <path
        d="M32.0625 0.539368V7.51078V7.47938V39.2904V63.3449L56.8393 49.6219L61.2985 10.9651L32.0625 0.539368Z"
        fill="#526ED3"
    />
    <path
        d="M39.7533 27.5013C39.7533 25.5119 38.963 23.6039 37.5562 22.1971C36.1495 20.7903 34.2415 20 32.252 20C30.2625 20 28.3545 20.7903 26.9478 22.1971C25.541 23.6039 24.7507 25.5119 24.7507 27.5013C24.7507 36.2529 21 38.7533 21 38.7533H43.504C43.504 38.7533 39.7533 36.2529 39.7533 27.5013Z"
        fill="white"
        stroke="white"
        stroke-width="1.5"
        stroke-linecap="round"
        stroke-linejoin="round"
    />
    <path
        d="M34.4149 43.7542C34.1951 44.1331 33.8796 44.4476 33.5 44.6663C33.1204 44.8849 32.69 45 32.252 45C31.8139 45 31.3836 44.8849 31.004 44.6663C30.6244 44.4476 30.3089 44.1331 30.0891 43.7542"
        fill="white"
    />
    <path
        d="M34.4149 43.7542C34.1951 44.1331 33.8796 44.4476 33.5 44.6663C33.1204 44.8849 32.69 45 32.252 45C31.8139 45 31.3836 44.8849 31.004 44.6663C30.6244 44.4476 30.3089 44.1331 30.0891 43.7542"
        stroke="white"
        stroke-width="1.5"
        stroke-linecap="round"
        stroke-linejoin="round"
    />
</svg>
