<svg width="600" height="600" viewBox="0 0 512 512" xmlns="http://www.w3.org/2000/svg">
   <g stroke="null" transform="matrix(2.5122204305161695,0,0,2.5122204305161695,-1123.5039578168125,-1123.4669114951682)">
    <polygon fill="#00acc1" points="549.31640625,448.91835513710976 549.31640625,448.91835513710976 549.31640625,448.91835513710976 456.2164001464844,482.118367344141 470.4164123535156,605.2183429300785 549.31640625,648.9183551371098 549.31640625,648.9183551371098 549.31640625,648.9183551371098 628.2164306640625,605.2183429300785 642.4164428710938,482.118367344141 "/>
    <polygon fill="#00838f" points="549.31640625,448.91835513710976 549.31640625,471.118367344141 549.31640625,471.0183612406254 549.31640625,572.3183795511723 549.31640625,572.3183795511723 549.31640625,648.9183551371098 549.31640625,648.9183551371098 628.2164306640625,605.2183429300785 642.4164428710938,482.118367344141 549.31640625,448.91835513710976 "/>
   </g>
   
	<g transform="translate(130, 130)">
		<g transform="scale(0.5)">
<path d="m241 507.355469v-108.84375c-27.257812 1.039062-54.253906 4.882812-79.941406 11.253906 4.136718 9.996094 8.664062 19.570313 13.566406 28.609375 19.566406 36.054688 43.882812 60.976562 66.375 68.980469zm0 0" fill="#FFFFFF"/><path d="m337.375 438.375c4.902344-9.035156 9.429688-18.613281 13.566406-28.609375-25.6875-6.371094-52.683594-10.214844-79.941406-11.253906v108.84375c22.492188-8.003907 46.808594-32.925781 66.375-68.980469zm0 0" fill="#FFFFFF"/><path d="m241 368.492188v-99.816407h-109.390625c1.367187 38.96875 8.015625 77.710938 19.148437 112.785157 28.980469-7.433594 59.496094-11.875 90.242188-12.96875zm0 0" fill="#FFFFFF"/><path d="m241 238.679688v-99.816407c-30.746094-1.09375-61.261719-5.535156-90.242188-12.964843-11.132812 35.074218-17.78125 73.8125-19.148437 112.78125zm0 0" fill="#FFFFFF"/><path d="m379.953125 89.128906c18.246094-6.152344 35.542969-13.640625 51.449219-22.347656-27.929688-26.230469-61.714844-46.300781-99.167969-57.984375 11.21875 12.675781 21.832031 28.050781 31.503906 45.875 5.941407 10.941406 11.347657 22.464844 16.214844 34.457031zm0 0" fill="#FFFFFF"/><path d="m174.625 68.980469c-4.902344 9.039062-9.429688 18.613281-13.566406 28.609375 25.6875 6.371094 52.683594 10.214844 79.941406 11.253906v-108.84375c-22.492188 8.003906-46.808594 32.925781-66.375 68.980469zm0 0" fill="#FFFFFF"/><path d="m271 268.675781v99.816407c30.75 1.097656 61.261719 5.535156 90.242188 12.96875 11.132812-35.074219 17.78125-73.816407 19.152343-112.785157zm0 0" fill="#FFFFFF"/><path d="m271 138.863281v99.816407h109.390625c-1.367187-38.96875-8.015625-77.707032-19.148437-112.78125-28.980469 7.429687-59.492188 11.871093-90.242188 12.964843zm0 0" fill="#FFFFFF"/><path d="m121.878906 390.039062c-11.992187-37.757812-18.960937-79.082031-20.300781-121.363281h-101.578125c3.285156 56.679688 25.058594 108.472657 59.367188 149.433594 19.109374-11.089844 40.175781-20.503906 62.511718-28.070313zm0 0" fill="#FFFFFF"/><path d="m379.953125 418.226562c-4.871094 11.992188-10.277344 23.515626-16.214844 34.460938-9.671875 17.824219-20.285156 33.195312-31.503906 45.871094 37.453125-11.683594 71.238281-31.753906 99.171875-57.984375-15.910156-8.707031-33.207031-16.195313-51.453125-22.347657zm0 0" fill="#FFFFFF"/><path d="m132.046875 418.226562c-18.246094 6.152344-35.542969 13.640626-51.449219 22.347657 27.929688 26.234375 61.714844 46.300781 99.167969 57.988281-11.214844-12.679688-21.828125-28.050781-31.503906-45.875-5.941407-10.945312-11.347657-22.46875-16.214844-34.460938zm0 0" fill="#FFFFFF"/><path d="m390.121094 117.316406c11.992187 37.757813 18.960937 79.082032 20.300781 121.363282h101.578125c-3.285156-56.679688-25.058594-108.46875-59.367188-149.429688-19.109374 11.089844-40.175781 20.5-62.511718 28.066406zm0 0" fill="#FFFFFF"/><path d="m390.121094 390.039062c22.335937 7.566407 43.402344 16.976563 62.511718 28.066407 34.308594-40.960938 56.082032-92.753907 59.367188-149.429688h-101.578125c-1.339844 42.28125-8.308594 83.605469-20.300781 121.363281zm0 0" fill="#FFFFFF"/><path d="m271 0v108.84375c27.257812-1.039062 54.253906-4.882812 79.941406-11.25-4.136718-10-8.660156-19.574219-13.566406-28.613281-19.566406-36.054688-43.882812-60.976563-66.375-68.980469zm0 0" fill="#FFFFFF"/><path d="m121.878906 117.316406c-22.335937-7.566406-43.402344-16.976562-62.511718-28.066406-34.3125 40.960938-56.082032 92.753906-59.367188 149.429688h101.578125c1.339844-42.28125 8.308594-83.605469 20.300781-121.363282zm0 0" fill="#FFFFFF"/><path d="m132.046875 89.128906c4.871094-11.992187 10.277344-23.515625 16.214844-34.457031 9.671875-17.828125 20.285156-33.199219 31.503906-45.875-37.453125 11.683594-71.238281 31.753906-99.171875 57.984375 15.910156 8.707031 33.207031 16.195312 51.453125 22.347656zm0 0" fill="#FFFFFF"/>
	</g></g>
</svg>