<svg xmlns="http://www.w3.org/2000/svg" width="64" height="64" viewBox="0 0 512 512">
    <g
        stroke="null"
        transform="matrix(2.5122204305161695,0,0,2.5122204305161695,-1123.5039578168125,-1123.4669114951682)"
    >
        <polygon
            fill="rgb(52,202,205)"
            points="549.31640625,448.91835513710976 549.31640625,448.91835513710976 549.31640625,448.91835513710976 456.2164001464844,482.118367344141 470.4164123535156,605.2183429300785 549.31640625,648.9183551371098 549.31640625,648.9183551371098 549.31640625,648.9183551371098 628.2164306640625,605.2183429300785 642.4164428710938,482.118367344141 "
        />
        <polygon
            fill="rgb(25,165,188)"
            points="549.31640625,448.91835513710976 549.31640625,471.118367344141 549.31640625,471.0183612406254 549.31640625,572.3183795511723 549.31640625,572.3183795511723 549.31640625,648.9183551371098 549.31640625,648.9183551371098 628.2164306640625,605.2183429300785 642.4164428710938,482.118367344141 549.31640625,448.91835513710976 "
        />
    </g>

    <g transform="translate(150, 150)">
        <g transform="scale(4.5)">
            <path d="M0 0h48v48h-48z" fill="none" />
            <path
                fill="white"
                d="M32.97 5.03c6.53 3.1 11.22 9.45 11.93 16.97h3c-1.02-12.32-11.32-22-23.9-22-.45 0-.88.04-1.33.07l7.63 7.63 2.67-2.67zm-12.51-1.54c-1.17-1.17-3.07-1.17-4.24 0l-12.73 12.73c-1.17 1.17-1.17 3.07 0 4.24l24.04 24.04c1.17 1.17 3.07 1.17 4.24 0l12.73-12.73c1.17-1.17 1.17-3.07 0-4.24l-24.04-24.04zm9.2 38.89l-24.05-24.04 12.73-12.73 24.04 24.04-12.72 12.73zm-14.63.59c-6.53-3.1-11.22-9.45-11.93-16.97h-3c1.02 12.32 11.32 22 23.9 22 .45 0 .88-.04 1.33-.07l-7.63-7.63-2.67 2.67z"
            />
        </g>
    </g>
</svg>
