<svg xmlns="http://www.w3.org/2000/svg" width="64" height="64" viewBox="0 0 512 512">
    <!-- Created with Method Draw - http://github.com/duopixel/Method-Draw/ -->

    <g>
        <title>background</title>
        <rect id="canvas_background" x="-1" y="-1" fill="none" height="514" width="514" />
        <g id="canvasGrid" display="none">
            <rect id="svg_1" x="0" y="0" fill="url(#gridpattern)" stroke-width="0" height="100%" width="100%" />
        </g>
    </g>
    <g>
        <title>Layer 1</title>
        <style type="text/css">
            .st0 {
                fill: #8c56cf;
            }
            .st1 {
                fill: #804fbd;
            }
            .st2 {
                fill: #ffffff;
            }
        </style>
        <g id="svg_8" stroke="null">
            <g
                id="svg_5"
                stroke="null"
                transform="matrix(2.5122204305161695,0,0,2.5122204305161695,-1123.5039578168125,-1123.4669114951682) "
            >
                <polygon
                    id="svg_6"
                    stroke="null"
                    points="549.31640625,448.91835513710976 549.31640625,448.91835513710976 549.31640625,448.91835513710976 456.2164001464844,482.118367344141 470.4164123535156,605.2183429300785 549.31640625,648.9183551371098 549.31640625,648.9183551371098 549.31640625,648.9183551371098 628.2164306640625,605.2183429300785 642.4164428710938,482.118367344141 "
                    class="st0"
                />
                <polygon
                    id="svg_7"
                    stroke="null"
                    points="549.31640625,448.91835513710976 549.31640625,471.118367344141 549.31640625,471.0183612406254 549.31640625,572.3183795511723 549.31640625,572.3183795511723 549.31640625,648.9183551371098 549.31640625,648.9183551371098 628.2164306640625,605.2183429300785 642.4164428710938,482.118367344141 549.31640625,448.91835513710976 "
                    class="st1"
                />
            </g>
        </g>
        <g id="svg_55" stroke="null">
            <g
                id="svg_38"
                stroke="null"
                transform="matrix(2.445971894608217,0,0,2.445971894608217,-2617.4310281944054,-2804.0511946644983) "
            >
                <path
                    id="svg_39"
                    fill="#ffffff"
                    stroke="null"
                    d="m1176.423861,1280.623347c0,1.639 -0.947,3.128 -2.429,3.823c-0.573,0.271 -1.187,0.402 -1.797,0.402c-0.966,0 -1.923,-0.332 -2.696,-0.973l-23.098,-19.14l-12.302,0c-2.333,0.002 -4.225,-1.891 -4.225,-4.224l0,-16.833c0,-2.334 1.892,-4.226 4.225,-4.226l12.303,0l23.098,-19.14c1.262,-1.046 3.012,-1.269 4.493,-0.569c1.481,0.695 2.429,2.185 2.429,3.823l-0.001,57.057l0,0zm16.237,-6.602c-0.103,0.007 -0.202,0.011 -0.304,0.011c-1.116,0 -2.192,-0.441 -2.987,-1.237l-0.565,-0.567c-1.482,-1.479 -1.656,-3.822 -0.408,-5.504c3.164,-4.266 4.834,-9.323 4.834,-14.628c0,-5.706 -1.896,-11.058 -5.484,-15.478c-1.366,-1.68 -1.24,-4.12 0.291,-5.65l0.564,-0.565c0.844,-0.844 1.975,-1.304 3.199,-1.231c1.192,0.06 2.305,0.621 3.061,1.545c4.977,6.09 7.606,13.484 7.606,21.38c0,7.354 -2.325,14.354 -6.725,20.24c-0.735,0.981 -1.859,1.597 -3.082,1.684zm17.468,13.057c-0.764,0.903 -1.869,1.445 -3.052,1.495c-0.058,0.002 -0.117,0.004 -0.177,0.004c-1.119,0 -2.193,-0.442 -2.988,-1.237l-0.555,-0.555c-1.551,-1.55 -1.656,-4.029 -0.246,-5.707c6.814,-8.104 10.568,-18.396 10.568,-28.982c0,-11.011 -4.019,-21.611 -11.314,-29.847c-1.479,-1.672 -1.404,-4.203 0.17,-5.783l0.554,-0.555c0.822,-0.826 1.89,-1.281 3.115,-1.242c1.163,0.033 2.263,0.547 3.036,1.417c8.818,9.928 13.675,22.718 13.675,36.01c0.002,12.789 -4.539,25.213 -12.786,34.982z"
                />
            </g>
        </g>
    </g>
</svg>
