<svg width="64" height="64" viewBox="0 0 512 512" xmlns="http://www.w3.org/2000/svg">
    <g transform="matrix(2.5122204305161695,0,0,2.5122204305161695,-1123.5039578168125,-1123.4669114951682)">
        <polygon
            fill="#8f6657"
            points="549.31640625,448.91835513710976 549.31640625,448.91835513710976 549.31640625,448.91835513710976 456.2164001464844,482.118367344141 470.4164123535156,605.2183429300785 549.31640625,648.9183551371098 549.31640625,648.9183551371098 549.31640625,648.9183551371098 628.2164306640625,605.2183429300785 642.4164428710938,482.118367344141"
        />
        <polygon
            fill="#795548"
            points="549.31640625,448.91835513710976 549.31640625,471.118367344141 549.31640625,471.0183612406254 549.31640625,572.3183795511723 549.31640625,572.3183795511723 549.31640625,648.9183551371098 549.31640625,648.9183551371098 628.2164306640625,605.2183429300785 642.4164428710938,482.118367344141 549.31640625,448.91835513710976"
        />
    </g>
    <g transform="translate(150, 150)">
        <g transform="scale(0.35)">
            <path
                d="M482.188,83.333L184.622,223.225v89.832l-51.91-23.082v-89.832L430.278,60.252l-99.946-44.439   c-13.383-5.95-35.281-5.95-48.664,0L35.557,125.243C15.95,133.961-0.05,158.649,0,180.107l0.606,256.534   c0.051,21.686,16.408,46.401,36.348,54.926L282.42,596.499c12.945,5.534,34.129,5.534,47.075,0.003l245.55-104.936   c19.939-8.521,36.297-33.234,36.348-54.919L612,180.107c0.051-21.458-15.949-46.146-35.557-54.864L482.188,83.333z    M556.398,288.675l-14.403,6.683l-0.292,101.353c-0.013,4.429-3.925,9.701-8.727,11.773l-21.563,9.309   c-4.727,2.041-8.551,0.149-8.554-4.223l-0.073-100.021l-13.951,6.472c-6.562,3.044-10.669-1.729-7.411-8.601l33.348-70.356   c3.366-7.102,11.806-11.199,15.184-7.347l34.221,39.012C567.593,276.623,563.257,285.494,556.398,288.675z M415.596,451.443   c0.037,4.243-3.55,9.24-8.001,11.162l-19.996,8.632c-4.385,1.893-7.972,0.029-8.022-4.16l-1.171-95.826l-12.938,6.002   c-6.085,2.823-9.968-1.808-7.006-8.344l30.31-66.881c3.057-6.747,10.873-10.541,14.062-6.805l32.301,37.836   c3.226,3.777-0.712,12.202-7.062,15.147l-13.338,6.188L415.596,451.443z M580.201,423.619c-0.015,2.226-2.016,4.865-4.468,5.896   l-228.395,95.95c-2.131,0.896-3.884-0.043-3.915-2.096l-0.175-11.162c-0.032-2.058,1.67-4.463,3.805-5.372l228.802-97.467   c2.455-1.046,4.438-0.086,4.423,2.146L580.201,423.619z"
                fill="#ffffff"
                data-original="#000000"
                style=""
                class=""
            />
        </g>
    </g>
</svg>
