<svg width="64" height="64" viewBox="0 0 512 512" xmlns="http://www.w3.org/2000/svg">
 <!-- Created with Method Draw - http://github.com/duopixel/Method-Draw/ -->

 <g>
  <title>background</title>
  <rect x="-1" y="-1" width="514" height="514" id="canvas_background" fill="none" />
  <g id="canvasGrid" display="none">
   <rect id="svg_1" width="100%" height="100%" x="0" y="0" stroke-width="0" fill="url(#gridpattern)" />
  </g>
 </g>
 <g>
  <title>Layer 1</title>
  <style type="text/css">
.st0 {
    fill: #63d8ff;
}
.st1 {
    fill: #4bc9f3;
}
.st2 {
    fill: #ffffff;
}
        </style>
  <g id="svg_8" stroke="null">
   <g
                id="svg_5"
                transform="matrix(2.5122204305161695,0,0,2.5122204305161695,-1123.5039578168125,-1123.4669114951682) "
                stroke="null"
            >
    <polygon
                    class="st0"
                    points="549.31640625,448.91835513710976 549.31640625,448.91835513710976 549.31640625,448.91835513710976 456.2164001464844,482.118367344141 470.4164123535156,605.2183429300785 549.31640625,648.9183551371098 549.31640625,648.9183551371098 549.31640625,648.9183551371098 628.2164306640625,605.2183429300785 642.4164428710938,482.118367344141 "
                    id="svg_6"
                    stroke="null"
                />
    <polygon
                    class="st1"
                    points="549.31640625,448.91835513710976 549.31640625,471.118367344141 549.31640625,471.0183612406254 549.31640625,572.3183795511723 549.31640625,572.3183795511723 549.31640625,648.9183551371098 549.31640625,648.9183551371098 628.2164306640625,605.2183429300785 642.4164428710938,482.118367344141 549.31640625,448.91835513710976 "
                    id="svg_7"
                    stroke="null"
                />
   </g>
  </g>
  <g stroke="null" id="svg_34">
   <g
                stroke="null"
                transform="matrix(0.5590590059895908,0,0,0.5590590059895908,-210.12161047137852,-300.1216754520101) "
                id="svg_10"
            >
    <g stroke="null" id="svg_11">
     <path
                        fill="#ffffff"
                        stroke="null"
                        id="svg_12"
                        d="m756.2575,994.745855l20.157,0l0,-161.262l28.667,0l0,161.262l20.158,0l0,160.589c0,0.231 0.048,0.446 0.071,0.673l-69.12,0c0.023,-0.227 0.071,-0.441 0.071,-0.673l-0.004,-160.589l0,0z"
                    />
     <path
                        fill="#ffffff"
                        stroke="null"
                        id="svg_13"
                        d="m910.3535,994.745855l0,161.262l-69.057,0c0.021,-0.227 0.073,-0.441 0.073,-0.673l0,-160.589l20.159,0l0,-161.262l28.665,0l0,161.262l20.16,0z"
                    />
     <polygon
                        fill="#ffffff"
                        stroke="null"
                        id="svg_14"
                        points="998.6004028320312,1156.0074700117111 926.4784545898438,1156.0074700117111 926.4784545898438,994.7455681562424 946.636474609375,994.7455681562424 946.636474609375,833.4836052656174 998.6004028320312,833.4836052656174 "
                    />
     <path
                        fill="#ffffff"
                        stroke="null"
                        id="svg_15"
                        d="m676.0765,833.483855l43.896,0l0,161.262l20.157,0l0,160.589c0,0.231 0.048,0.446 0.071,0.673l-64.124,0l0,-322.524z"
                    />
    </g>
   </g>
   <g
                stroke="null"
                transform="matrix(0.5590590059895908,0,0,0.5590590059895908,-210.12161047137852,-300.1216754520101) "
                id="svg_19"
            />
   <g
                stroke="null"
                transform="matrix(0.5590590059895908,0,0,0.5590590059895908,-210.12161047137852,-300.1216754520101) "
                id="svg_20"
            />
   <g
                stroke="null"
                transform="matrix(0.5590590059895908,0,0,0.5590590059895908,-210.12161047137852,-300.1216754520101) "
                id="svg_21"
            />
   <g
                stroke="null"
                transform="matrix(0.5590590059895908,0,0,0.5590590059895908,-210.12161047137852,-300.1216754520101) "
                id="svg_22"
            />
   <g
                stroke="null"
                transform="matrix(0.5590590059895908,0,0,0.5590590059895908,-210.12161047137852,-300.1216754520101) "
                id="svg_23"
            />
   <g
                stroke="null"
                transform="matrix(0.5590590059895908,0,0,0.5590590059895908,-210.12161047137852,-300.1216754520101) "
                id="svg_24"
            />
   <g
                stroke="null"
                transform="matrix(0.5590590059895908,0,0,0.5590590059895908,-210.12161047137852,-300.1216754520101) "
                id="svg_25"
            />
   <g
                stroke="null"
                transform="matrix(0.5590590059895908,0,0,0.5590590059895908,-210.12161047137852,-300.1216754520101) "
                id="svg_26"
            />
   <g
                stroke="null"
                transform="matrix(0.5590590059895908,0,0,0.5590590059895908,-210.12161047137852,-300.1216754520101) "
                id="svg_27"
            />
   <g
                stroke="null"
                transform="matrix(0.5590590059895908,0,0,0.5590590059895908,-210.12161047137852,-300.1216754520101) "
                id="svg_28"
            />
   <g
                stroke="null"
                transform="matrix(0.5590590059895908,0,0,0.5590590059895908,-210.12161047137852,-300.1216754520101) "
                id="svg_29"
            />
   <g
                stroke="null"
                transform="matrix(0.5590590059895908,0,0,0.5590590059895908,-210.12161047137852,-300.1216754520101) "
                id="svg_30"
            />
   <g
                stroke="null"
                transform="matrix(0.5590590059895908,0,0,0.5590590059895908,-210.12161047137852,-300.1216754520101) "
                id="svg_31"
            />
   <g
                stroke="null"
                transform="matrix(0.5590590059895908,0,0,0.5590590059895908,-210.12161047137852,-300.1216754520101) "
                id="svg_32"
            />
   <g
                stroke="null"
                transform="matrix(0.5590590059895908,0,0,0.5590590059895908,-210.12161047137852,-300.1216754520101) "
                id="svg_33"
            />
  </g>
 </g>
</svg>
