<?xml version="1.0" standalone="no" ?>
<!DOCTYPE svg PUBLIC "-//W3C//DTD SVG 20010904//EN" "http://www.w3.org/TR/2001/REC-SVG-20010904/DTD/svg10.dtd">
<svg
    xmlns="http://www.w3.org/2000/svg"
    version="1.0"
    width="700.000000pt"
    height="700.000000pt"
    viewBox="0 0 700.000000 700.000000"
    preserveAspectRatio="xMidYMid meet"
>
    <metadata>Created by potrace 1.11, written by Peter Selinger 2001-2013</metadata>
    <g transform="translate(0.000000,700.000000) scale(0.100000,-0.100000)" fill="#000000" stroke="none">
        <path
            d="M1908 6372 c-873 -312 -1589 -570 -1592 -573 -7 -6 470 -4172 482
-4207 5 -19 295 -183 1359 -772 l1352 -749 483 268 c266 147 872 483 1348 746
476 263 868 481 872 484 5 4 470 3992 491 4210 2 24 -17 32 -538 217 -297 106
-1014 362 -1594 568 -579 207 -1058 376 -1065 375 -6 0 -725 -255 -1598 -567z
m1995 -1039 c3 -21 9 -72 13 -114 4 -43 9 -81 13 -87 3 -5 38 -19 76 -32 97
-31 296 -128 380 -185 39 -27 107 -79 152 -117 45 -37 86 -68 90 -68 5 0 55
20 112 45 58 25 108 42 112 38 7 -9 379 -653 379 -658 0 -2 -90 -70 -189 -142
-3 -2 3 -44 13 -94 37 -193 38 -445 1 -619 -8 -39 -15 -77 -15 -85 0 -7 43
-44 95 -82 61 -44 93 -73 90 -82 -6 -15 -350 -614 -369 -642 -10 -15 -23 -11
-124 33 l-113 49 -65 -60 c-127 -120 -350 -250 -529 -310 -49 -16 -92 -36 -95
-43 -4 -7 -11 -47 -14 -88 -4 -41 -10 -92 -13 -112 l-6 -38 -382 0 -383 0 -6
27 c-2 16 -7 55 -11 88 -14 142 -5 129 -108 164 -190 65 -388 182 -550 323
l-54 48 -111 -50 c-61 -27 -113 -46 -116 -42 -235 406 -376 653 -376 660 0 4
43 39 96 77 92 66 95 71 89 100 -33 155 -39 213 -39 370 0 158 7 224 40 376 5
24 -3 33 -90 98 -53 39 -96 74 -96 78 0 9 360 635 375 651 9 10 33 3 121 -36
l109 -49 65 59 c137 125 341 244 530 309 52 18 96 33 97 34 1 0 7 46 13 101 6
54 13 109 16 122 l4 22 384 0 383 0 6 -37z"
        />
        <path
            d="M3551 4283 c-25 -99 -283 -1345 -279 -1349 7 -6 190 -45 194 -41 10
9 293 1382 286 1388 -7 7 -153 39 -178 39 -7 0 -18 -17 -23 -37z"
        />
        <path
            d="M2763 3791 l-182 -187 190 -190 189 -189 70 70 c38 38 70 73 70 76 0
4 -52 58 -115 120 l-116 113 118 118 118 118 -70 70 c-38 38 -74 70 -80 69 -5
0 -92 -85 -192 -188z"
        />
        <path
            d="M3995 3910 l-70 -70 113 -113 c61 -62 112 -116 112 -121 0 -5 -52
-59 -116 -120 l-116 -111 67 -72 c37 -40 70 -73 75 -73 5 0 95 84 200 187
l191 187 -188 188 c-103 103 -190 188 -193 188 -3 0 -37 -32 -75 -70z"
        />
    </g>
</svg>
