<svg width="64" height="64" viewBox="0 0 512 512" xmlns="http://www.w3.org/2000/svg">
 <!-- Created with Method Draw - http://github.com/duopixel/Method-Draw/ -->

 <g>
  <title>background</title>
  <rect fill="none" id="canvas_background" height="514" width="514" y="-1" x="-1" />
  <g display="none" id="canvasGrid">
   <rect fill="url(#gridpattern)" stroke-width="0" y="0" x="0" height="100%" width="100%" id="svg_1" />
  </g>
 </g>
 <g>
  <title>Layer 1</title>
  <style type="text/css">
.st0 {
    fill: #54ab1e;
}
.st1 {
    fill: #519328;
}
.st2 {
    fill: #ffffff;
}
        </style>
  <g stroke="null" id="svg_8">
   <g
                stroke="null"
                transform="matrix(2.5122204305161695,0,0,2.5122204305161695,-1123.5039578168125,-1123.4669114951682) "
                id="svg_5"
            >
    <polygon
                    stroke="null"
                    id="svg_6"
                    points="549.31640625,448.91835513710976 549.31640625,448.91835513710976 549.31640625,448.91835513710976 456.2164001464844,482.118367344141 470.4164123535156,605.2183429300785 549.31640625,648.9183551371098 549.31640625,648.9183551371098 549.31640625,648.9183551371098 628.2164306640625,605.2183429300785 642.4164428710938,482.118367344141 "
                    class="st0"
                />
    <polygon
                    stroke="null"
                    id="svg_7"
                    points="549.31640625,448.91835513710976 549.31640625,471.118367344141 549.31640625,471.0183612406254 549.31640625,572.3183795511723 549.31640625,572.3183795511723 549.31640625,648.9183551371098 549.31640625,648.9183551371098 628.2164306640625,605.2183429300785 642.4164428710938,482.118367344141 549.31640625,448.91835513710976 "
                    class="st1"
                />
   </g>
  </g>
  <g transform="scale(0.8)">
   <circle cx="440" cy="276" r="10" fill="white" />
   <circle cx="200" cy="276" r="10" fill="white" />
   <path
                transform="translate(85, 70)"
                d="M213.733 155.480 C 177.265 157.131,152.024 162.239,133.600 171.698 C 130.887 173.091,127.737 174.709,126.600 175.293 C 122.386 177.461,119.467 176.444,119.467 172.809 C 119.467 171.852,119.265 171.823,117.307 172.496 C 108.544 175.511,103.389 181.926,103.349 189.867 C 103.330 193.514,103.591 194.216,106.667 198.800 C 109.432 202.921,109.918 204.103,110.074 207.073 C 110.154 208.601,110.099 209.590,109.929 209.695 C 109.755 209.802,109.649 209.328,109.638 208.398 C 109.604 205.579,108.395 202.728,106.236 200.377 C 105.058 199.094,105.035 199.083,105.160 199.867 C 107.114 212.147,104.942 217.838,93.796 229.645 C 87.229 236.602,86.061 239.118,86.021 246.400 C 85.972 255.384,89.889 258.490,100.022 257.499 C 102.430 257.264,107.880 256.889,112.133 256.666 C 132.717 255.587,139.829 253.668,164.267 242.594 C 197.371 227.593,208.668 224.678,234.988 224.342 C 264.953 223.960,277.498 226.906,311.333 242.268 C 336.440 253.667,343.356 255.547,364.267 256.664 C 368.447 256.888,373.787 257.272,376.133 257.518 C 386.642 258.621,391.248 255.944,391.673 248.488 C 392.073 241.466,389.882 236.834,382.674 229.467 C 373.038 219.618,371.402 216.388,371.356 207.133 C 371.344 204.530,371.255 202.400,371.159 202.400 C 370.380 202.400,368.339 207.677,368.015 210.530 C 367.699 213.314,367.595 213.514,367.365 211.779 C 366.951 208.661,368.029 204.932,371.030 199.101 L 372.933 195.402 372.933 191.101 C 372.933 182.011,368.420 175.755,359.544 172.543 C 356.912 171.591,356.592 171.667,357.391 173.054 L 357.980 174.078 357.457 175.066 C 355.710 178.361,354.258 178.238,345.709 174.077 C 323.072 163.057,300.622 158.177,261.200 155.704 C 255.427 155.342,220.426 155.177,213.733 155.480 M19.896 160.867 C 6.944 173.813,4.403 194.522,13.999 208.944 C 18.625 215.896,23.678 218.697,35.333 220.769 C 49.886 223.357,61.231 221.782,79.542 214.632 C 92.264 209.664,96.457 209.430,100.756 213.451 C 102.413 215.002,102.848 214.423,103.602 209.663 C 103.993 207.187,99.619 202.439,94.829 200.141 C 86.976 196.374,76.883 196.122,56.133 199.173 C 46.367 200.609,41.242 200.844,38.308 199.992 C 36.783 199.549,37.266 199.435,39.215 199.778 C 41.401 200.163,46.099 199.762,52.400 198.654 C 70.581 195.456,73.752 195.083,81.168 195.269 C 91.797 195.536,99.398 199.194,102.676 205.619 C 104.271 208.744,104.007 202.587,102.370 198.461 C 95.879 182.101,84.649 176.946,63.679 180.699 C 56.752 181.939,55.103 182.130,51.286 182.131 C 34.752 182.140,23.903 173.882,23.875 161.267 C 23.865 156.715,24.033 156.732,19.896 160.867 M186.667 169.993 C 195.653 172.396,200.705 180.134,201.471 192.667 C 202.297 206.192,196.020 222.285,188.856 225.010 C 173.241 230.949,165.745 232.504,159.776 231.046 C 146.256 227.741,140.963 216.157,145.752 200.356 C 152.114 179.367,170.553 165.683,186.667 169.993 M300.684 169.614 C 323.945 173.733,341.757 211.503,326.978 225.371 C 321.989 230.053,315.239 232.297,308.487 231.519 C 305.296 231.151,287.425 225.338,285.484 224.037 C 276.709 218.153,272.041 194.675,277.059 181.662 C 280.647 172.356,289.804 167.687,300.684 169.614 M121.266 200.232 C 124.380 201.821,125.519 205.873,123.727 208.997 C 120.612 214.429,112.178 212.181,112.157 205.911 C 112.140 201.100,117.013 198.063,121.266 200.232 M360.063 199.884 C 364.180 201.287,365.576 206.551,362.717 209.892 C 358.996 214.239,351.754 211.583,351.742 205.867 C 351.732 201.429,355.868 198.455,360.063 199.884 M245.185 207.070 C 254.323 208.139,264.222 211.296,268.518 214.512 C 269.592 215.316,269.207 215.416,267.789 214.702 C 254.532 208.028,229.220 206.604,210.701 211.491 C 207.217 212.410,206.790 212.376,209.055 211.360 C 217.698 207.481,233.083 205.654,245.185 207.070 M90.533 213.086 C 88.634 213.545,86.107 214.431,80.577 216.576 C 73.235 219.425,69.643 220.649,65.067 221.862 C 47.539 226.506,43.218 231.099,40.421 248.060 C 38.834 257.685,37.806 260.352,34.356 263.798 C 31.802 266.347,31.601 266.253,39.149 266.053 C 57.526 265.568,66.555 259.019,76.716 238.806 C 84.484 223.352,88.377 220.000,96.397 221.859 C 97.596 222.137,98.198 221.755,99.255 220.044 C 99.904 218.995,99.817 218.895,97.733 218.283 C 90.882 216.271,82.974 217.886,75.574 222.810 C 71.536 225.496,68.961 228.225,64.645 234.387 C 61.663 238.645,55.498 244.485,52.218 246.158 C 50.344 247.114,50.575 246.570,52.966 244.394 C 55.928 241.698,59.427 237.605,62.667 233.047 C 72.347 219.424,86.861 213.217,98.337 217.793 C 102.219 219.342,101.128 215.519,97.128 213.557 C 95.711 212.862,92.430 212.628,90.533 213.086 "
                stroke="none"
                fill="#fff"
                fill-rule="evenodd"
            />
  </g>
 </g>
</svg>
