<svg width="64" height="64" viewBox="0 0 512 512" xmlns="http://www.w3.org/2000/svg">
 <!-- Created with Method Draw - http://github.com/duopixel/Method-Draw/ -->

 <g>
  <title>background</title>
  <rect fill="none" id="canvas_background" height="514" width="514" y="-1" x="-1" />
  <g display="none" id="canvasGrid">
   <rect fill="url(#gridpattern)" stroke-width="0" y="0" x="0" height="100%" width="100%" id="svg_1" />
  </g>
 </g>
 <g>
  <title>Layer 1</title>
  <style type="text/css">
.st0 {
    fill: #3eaf12;
}
.st1 {
    fill: #38a210;
}
.st2 {
    fill: #ffffff;
}
        </style>
  <g stroke="null" id="svg_8">
   <g
                stroke="null"
                transform="matrix(2.5122204305161695,0,0,2.5122204305161695,-1123.5039578168125,-1123.4669114951682) "
                id="svg_5"
            >
    <polygon
                    stroke="null"
                    id="svg_6"
                    points="549.31640625,448.91835513710976 549.31640625,448.91835513710976 549.31640625,448.91835513710976 456.2164001464844,482.118367344141 470.4164123535156,605.2183429300785 549.31640625,648.9183551371098 549.31640625,648.9183551371098 549.31640625,648.9183551371098 628.2164306640625,605.2183429300785 642.4164428710938,482.118367344141 "
                    class="st0"
                />
    <polygon
                    stroke="null"
                    id="svg_7"
                    points="549.31640625,448.91835513710976 549.31640625,471.118367344141 549.31640625,471.0183612406254 549.31640625,572.3183795511723 549.31640625,572.3183795511723 549.31640625,648.9183551371098 549.31640625,648.9183551371098 628.2164306640625,605.2183429300785 642.4164428710938,482.118367344141 549.31640625,448.91835513710976 "
                    class="st1"
                />
   </g>
  </g>
  <g stroke="null" id="svg_12">
   <path
                stroke="null"
                fill="#ffffff"
                id="svg_9"
                d="m354.863969,155.805319c-0.102186,-3.424861 -2.852631,-6.177011 -6.275787,-6.280897l-88.303823,-2.689137c-1.801844,-0.051089 -3.535561,0.638651 -4.800936,1.91765l-108.994341,110.116656c-13.357125,13.495075 -13.357125,35.450963 0,48.946037l51.539803,52.069454c6.490374,6.558492 15.126606,10.170691 24.314632,10.170691c9.189727,0 17.825963,-3.612199 24.316337,-10.170691l108.996042,-110.118361c1.24664,-1.260269 1.922756,-2.976957 1.869962,-4.749843l-2.661888,-89.21156zm-83.817956,136.84964c-1.265374,1.263674 -2.922459,1.897211 -4.581239,1.897211c-1.65708,0 -3.314164,-0.631837 -4.579538,-1.897211l-2.816868,-2.818568l-4.662986,4.662986c-1.265374,1.263674 -2.922454,1.895507 -4.579538,1.895507c-1.65878,0 -3.315864,-0.631833 -4.579534,-1.897211c-2.530753,-2.529048 -2.530753,-6.630024 0,-9.159073l12.401705,-12.401705c2.321276,-2.321276 2.319571,-6.098669 -0.001705,-8.419944c-2.322976,-2.32298 -6.098669,-2.324681 -8.419944,-0.003409l-3.159181,3.15748c0,0.001705 0,0.001705 -0.001705,0.001705l-3.159181,3.160885c-3.685426,3.685426 -8.527236,5.528144 -13.367344,5.528144c-4.843509,0 -9.685318,-1.842718 -13.37245,-5.531549c-3.571325,-3.571325 -5.538364,-8.317763 -5.540064,-13.369049c0,-4.375167 1.476556,-8.522126 4.192943,-11.873754l-2.893505,-2.89521c-2.529048,-2.529048 -2.529048,-6.630024 0,-9.159073c2.529048,-2.529048 6.630024,-2.529048 9.159073,0l2.818568,2.818568l2.953113,-2.954813c2.529048,-2.529048 6.630024,-2.529048 9.160777,0c2.529048,2.530753 2.529048,6.631729 0,9.160777l-10.695237,10.693532c-1.124024,1.124024 -1.742232,2.61761 -1.742232,4.208272c0,1.590658 0.619913,3.085948 1.745637,4.211672c2.32298,2.32298 6.100373,2.32298 8.419944,0.003409l3.160885,-3.160885s0,-0.001705 0.001705,-0.001705l3.15748,-3.159181c7.372558,-7.370857 19.367232,-7.369157 26.739794,0.003405c6.894,6.892295 7.341904,17.825963 1.347121,25.242803l2.893505,2.895205c2.529048,2.530753 2.529048,6.631729 0,9.160777zm45.822616,-77.189632c-3.787612,3.787612 -8.763962,5.681419 -13.738611,5.681419c-4.976349,0 -9.952699,-1.893806 -13.740311,-5.681419c-3.670102,-3.670102 -5.691638,-8.549379 -5.691638,-13.740316c0,-5.189232 2.021537,-10.068509 5.691638,-13.738611c7.575225,-7.575225 19.903697,-7.576925 27.478922,0c7.57693,7.575225 7.57693,19.903702 0,27.478927zm0,0"
            />
  </g>
 </g>
</svg>
