<?xml version="1.0" standalone="no"?>
<!DOCTYPE svg PUBLIC "-//W3C//DTD SVG 20010904//EN"
 "http://www.w3.org/TR/2001/REC-SVG-20010904/DTD/svg10.dtd">
<svg version="1.0" xmlns="http://www.w3.org/2000/svg"
 width="600.000000pt" height="600.000000pt" viewBox="0 0 600.000000 600.000000"
 preserveAspectRatio="xMidYMid meet">
<metadata>
Created by potrace 1.11, written by Peter Selinger 2001-2013
</metadata>
<g transform="translate(0.000000,600.000000) scale(0.100000,-0.100000)"
fill="#000000" stroke="none">
<path d="M1650 5465 c-745 -266 -1361 -487 -1369 -492 -12 -8 19 -294 194
-1814 114 -992 210 -1807 214 -1811 3 -3 527 -294 1163 -647 l1157 -640 1158
641 c637 352 1159 642 1161 643 7 5 419 3621 413 3627 -5 6 -2727 979 -2734
978 -1 -1 -612 -219 -1357 -485z m1833 -1388 c86 -37 135 -110 144 -218 l6
-69 136 0 c147 0 190 -8 241 -43 42 -28 67 -62 85 -113 l13 -39 92 -5 c135 -7
130 4 130 -285 l0 -234 -26 -20 c-25 -20 -39 -21 -230 -21 l-204 0 0 70 c0
110 1 110 -229 110 l-190 0 -20 -26 c-16 -21 -21 -41 -21 -90 l0 -64 -390 0
-390 0 0 70 c0 110 0 110 -223 110 -224 0 -220 2 -227 -102 l-5 -73 -195 -3
c-107 -1 -205 0 -217 3 -46 11 -53 47 -53 280 l0 217 29 29 c28 27 34 29 113
29 l83 0 17 48 c10 26 32 62 49 80 60 62 78 67 257 70 l162 4 0 61 c1 98 45
173 130 218 33 17 66 18 468 19 341 0 439 -3 465 -13z m-1003 -1127 l0 -110
-75 0 -75 0 0 110 0 110 75 0 75 0 0 -110z m1240 5 l0 -105 -75 0 -75 0 0 105
0 105 75 0 75 0 0 -105z m-1542 -152 c3 -65 6 -74 30 -93 25 -20 36 -21 203
-18 216 4 217 4 221 112 l3 71 388 3 387 2 0 -59 c0 -71 13 -105 47 -120 14
-7 91 -11 194 -11 167 0 170 0 194 25 22 21 25 33 25 95 l0 70 156 0 155 0 -3
-312 c-3 -276 -5 -317 -21 -345 -25 -47 -84 -100 -126 -115 -28 -10 -241 -13
-1016 -13 l-980 0 -41 22 c-47 25 -91 73 -111 120 -10 25 -13 104 -13 338 l0
306 153 -3 152 -3 3 -72z"/>
<path d="M2608 3926 c-22 -17 -38 -59 -38 -102 l0 -34 450 0 450 0 0 53 c0 43
-5 58 -23 75 -23 22 -26 22 -423 22 -311 -1 -403 -3 -416 -14z"/>
</g>
</svg>
